<svg id="Слой_1" data-name="Слой 1" xmlns="http://www.w3.org/2000/svg" viewBox="0 0 1082.21 186.17"><title>Signature_Dima_SVG</title><path d="M535.7,334.66q-162,.84-324.08.45,16-24.84,31.95-49.66c64.15-14.68,127.61-32.22,189.94-54,3.45-1.21,2-6.73-1.52-5.52C371.61,247,310.15,264.14,248,278.53q24.16-37.45,48.4-74.87c2-3.1-2.94-6-4.94-2.89Q265.73,240.55,240,280.38c-105.36,24-212.56,40.3-319.63,54.67-3.52.48-3.81,5.73,0,5.72q140.39-.25,280.76,0-13,20.31-26.09,40.6c-2,3.1,3,6,4.94,2.88Q194,362.54,208,340.82q163.88.15,327.75-.45C539.38,340.35,539.39,334.64,535.7,334.66ZM-37.79,335c91.64-12.8,183.19-27.55,273.42-47.84q-15.44,23.93-30.79,47.9Q83.52,335-37.79,335Z" transform="translate(82.34 -199.45)"/><path d="M537.48,314.93c-3.07.62-6.14,1.16-9.24,1.49,15-24.05,30.65-47.74,46.5-71.22,2.06-3.06-2.89-5.92-4.94-2.89-16.86,25-33.55,50.2-49.39,75.83a2.88,2.88,0,0,0,2.47,4.3,79,79,0,0,0,16.12-2C542.61,319.73,541.08,314.22,537.48,314.93Z" transform="translate(82.34 -199.45)"/><path d="M575.65,350.56a102.88,102.88,0,0,1-24.53,13.51q25.9-41.62,53.38-82.31c2.06-3.06-2.89-5.93-4.94-2.89q-11.12,16.51-22,33.2a3.21,3.21,0,0,0-.77.16A75.34,75.34,0,0,1,553,317.89c7.54-12.07,15.3-24,23.06-35.94,2-3.09-2.93-6-4.94-2.89-8.74,13.45-17.53,26.88-26,40.52a2.88,2.88,0,0,0,2.47,4.3,81.73,81.73,0,0,0,24.89-4.05Q557,343.59,542.14,367.65c-1.35,2.18.88,4.78,3.23,4.2,12.09-3,23.13-9.13,33.17-16.36C581.49,353.36,578.64,348.4,575.65,350.56Z" transform="translate(82.34 -199.45)"/><path d="M657.77,279.41c-2,3-4,6.09-5.94,9.14a2.2,2.2,0,0,0-.39.6c-6.07,9.35-12.05,18.77-17.83,28.31-1.91,3.15,3,6,4.94,2.88C644.2,311,650,301.81,656,292.66a91.63,91.63,0,0,1,28.67-8.26c-7.09,11.33-14.38,22.54-21.67,33.75-2,3.09,2.94,6,4.94,2.88,8.36-12.85,16.77-25.69,24.82-38.74,1.08-1.74-.29-4.48-2.47-4.3a111.06,111.06,0,0,0-28.7,6.07c.39-.59.76-1.18,1.14-1.77C664.75,279.22,659.8,276.36,657.77,279.41Z" transform="translate(82.34 -199.45)"/><path d="M402.08,321c5.64-9.27,11.42-18.48,17.25-27.65,9-3.82,17.79-7.85,27.34-9.66-6.42,11.43-12.83,22.88-19.35,34.26-1.83,3.19,3.1,6.07,4.94,2.88,7.49-13.06,14.83-26.21,22.21-39.33,1-1.75-.22-4.51-2.47-4.3-9.71.88-18.52,4.07-27.31,7.72q13.21-20.59,26.78-40.94c2-3.07-2.91-5.94-4.94-2.89-16.86,25.39-33.54,51-49.39,77C395.22,321.3,400.16,324.17,402.08,321Z" transform="translate(82.34 -199.45)"/><path d="M388.94,307.14c-8.93,4.77-18.8,7.43-28.63,9.61-3.59.79-2.07,6.3,1.52,5.51,3.87-.86,53.28-14.7,38.56-25.09-4.82-3.4-15.49-1.81-21-1.72-2.29,0-4.57.2-6.86.28,9.75-5.41,20.09-10.22,30.78-12.47,3.59-.76,2.07-6.27-1.52-5.51-14.88,3.13-29.18,11.06-42.12,18.83-2.32,1.39-1.48,5.5,1.45,5.32,9.11-.56,18.29-1,27.42-.73.89,0,7.74-.1,7.9.53C396.9,303.44,390.17,306.48,388.94,307.14Z" transform="translate(82.34 -199.45)"/><path d="M459.16,289.45c1.13-.27,2.29-.51,3.43-.77-6.32,9.77-12.58,19.57-18.69,29.46a2.88,2.88,0,0,0,2.46,4.3c9.37.12,18.54-2.37,27.27-5.51,3.43-1.23,1.95-6.76-1.52-5.51a84.7,84.7,0,0,1-20.39,5q9.22-14.81,18.76-29.43a205.18,205.18,0,0,1,23.69-3.34c3.64-.28,3.68-6,0-5.72-6.47.5-12.95,1.36-19.39,2.46q11.61-17.7,23.44-35.2c2.07-3.06-2.88-5.92-4.93-2.89Q480,262,467,281.85q-4.72,1-9.37,2.09C454.06,284.81,455.58,290.32,459.16,289.45Z" transform="translate(82.34 -199.45)"/><path d="M341,321q12-19.78,24.77-39.08c2-3.07-2.91-5.94-4.94-2.88-.57.85-1.11,1.72-1.67,2.58a3.58,3.58,0,0,0-.57,0c-24.64,4.27-42.09,13.09-52.55,36.47-.79,1.78.09,4.48,2.47,4.3,9.6-.75,18.84-1.78,27.8-4.66l-.25.41C334.17,321.27,339.11,324.15,341,321Zm-27.78-4.75c3.59-7.1,8-13.62,14.74-18.29,7.95-5.53,17.55-8.09,27-9.91q-7,10.77-13.72,21.68C332.3,313.92,322.92,315.37,313.24,316.25Z" transform="translate(82.34 -199.45)"/><path d="M476.8,318.1c-.8,1.78.08,4.48,2.46,4.3,9.6-.75,18.84-1.78,27.8-4.66l-.24.41c-1.92,3.15,3,6,4.93,2.88q12-19.78,24.77-39.08c2-3.07-2.91-5.94-4.94-2.89-.57.86-1.11,1.73-1.67,2.59a2.67,2.67,0,0,0-.57,0C504.7,285.9,487.25,294.71,476.8,318.1ZM512,309.76c-9,4.19-18.35,5.64-28,6.52,3.58-7.1,8-13.62,14.73-18.29,8-5.54,17.55-8.09,27-9.91Q518.74,298.85,512,309.76Z" transform="translate(82.34 -199.45)"/><path d="M643,279.06l-1.67,2.59a2.67,2.67,0,0,0-.57,0c-24.63,4.27-42.09,13.08-52.54,36.47-.8,1.78.09,4.48,2.47,4.3,9.6-.75,18.83-1.78,27.8-4.66l-.25.41c-1.91,3.15,3,6,4.93,2.88q12-19.78,24.77-39.08C650,278.88,645,276,643,279.06Zm-47.6,37.22c3.58-7.1,8-13.62,14.73-18.29,8-5.54,17.55-8.09,27-9.91q-7,10.77-13.73,21.68C614.45,314,605.08,315.4,595.4,316.28Z" transform="translate(82.34 -199.45)"/><path d="M739.76,289.72c-6.19,9.48-12.66,18.79-18.6,28.42a2.88,2.88,0,0,0,2.47,4.3,68,68,0,0,0,16.13-2c3.59-.8,2.07-6.31-1.52-5.52a78.83,78.83,0,0,1-9.2,1.54c5.11-8,10.46-15.9,15.66-23.86C746.71,289.52,741.77,286.65,739.76,289.72Z" transform="translate(82.34 -199.45)"/><path d="M750.87,283l.7-1c2.07-3.06-2.88-5.92-4.93-2.89l-.71,1C743.87,283.17,748.82,286,750.87,283Z" transform="translate(82.34 -199.45)"/><path d="M829.92,277.72a142.76,142.76,0,0,0-24.69,4.15,2.87,2.87,0,0,0-2.54-4.15,143.11,143.11,0,0,0-24.31,4c2-2.94-2.85-5.71-5-2.8q-14.08,19.31-27.35,39.19c-2,3.07,2.91,5.93,4.94,2.88,7.15-10.76,14.56-21.33,22.09-31.82a138.66,138.66,0,0,1,23.7-5.14c-7.87,11.43-16,22.71-24,34-2.14,3,2.81,5.86,4.94,2.88,7.51-10.53,15-21.05,22.43-31.69A138.8,138.8,0,0,1,824,284.07c-7.87,11.43-16,22.71-24,34-2.14,3,2.81,5.86,4.93,2.88,9.23-12.92,18.57-25.79,27.48-38.93A2.87,2.87,0,0,0,829.92,277.72Z" transform="translate(82.34 -199.45)"/><path d="M871.73,279.06l-1.67,2.59a2.67,2.67,0,0,0-.57,0C844.86,285.9,827.4,294.71,817,318.1c-.8,1.78.09,4.48,2.47,4.3,9.6-.75,18.83-1.78,27.8-4.66l-.25.41c-1.91,3.15,3,6,4.93,2.88q12-19.78,24.77-39.08C878.71,278.88,873.76,276,871.73,279.06Zm-47.6,37.22c3.58-7.1,8-13.62,14.73-18.29,8-5.54,17.55-8.09,27-9.91q-7,10.77-13.72,21.68C843.18,314,833.81,315.4,824.13,316.28Z" transform="translate(82.34 -199.45)"/><path d="M999.13,335.93c-31.45-36.95-77.69-64.74-125-76-40.58-9.64-82.34-16-124.36-20.6q11.53-17.83,23.07-35.69c2-3.1-2.94-6-4.94-2.89q-12.27,18.93-24.48,37.88c-43.89-4.61-88-7.36-131.33-9.87-3.68-.22-3.66,5.5,0,5.71,42.37,2.47,85.05,5.46,127.53,10q-29.25,45.24-58.38,90.57H582.87c-3.68,0-3.68,5.72,0,5.72h94.66q-13,20.29-26.09,40.6c-2,3.1,3,6,4.94,2.88q13.93-21.77,27.94-43.48H997.11C999.73,340.81,1000.68,337.75,999.13,335.93ZM688,335.09q28.9-45,57.92-89.83c39.74,4.43,79.3,10.23,118.25,18.41,47.51,10,93.83,35.36,126.57,71.42Z" transform="translate(82.34 -199.45)"/></svg>